# xmcd
#
# Track frame offsets: 
#        150
#        20479
#        31293
#        49626
#        63402
#        77914
#        97731
#        114131
#        134008
#        149410
#        168334
#        179320
#        192138
#        213142
#        234661
#        247545
#        260356
#        274484
#        287510
#        307079
#        320629
#
# Disc length: 4735 seconds
#
# Revision: 0
# Processed by: cddbd v1.5.2PL0 Copyright (c) Steve Scherf et al.
# Submitted via: ExactAudioCopy v0.99pb5
#
DISCID=25127d15
DTITLE=Владимир Поляков - GUITAR
DYEAR=2011
DGENRE=Acoustic
TTITLE0=Вечная любовь
TTITLE1=Моей душе покоя нет
TTITLE2=История Любви
TTITLE3=Генералы песчаных карьеров
TTITLE4=Город которого нет
TTITLE5=Канцона - Города золотой
TTITLE6=Женщина в красном
TTITLE7=Давай за ...
TTITLE8=Манчестер-Ливерпуль Погода
TTITLE9=Память
TTITLE10=Говорите тише
TTITLE11=Под лаской плюшевого пледа
TTITLE12=Романс
TTITLE13=Сонет
TTITLE14=Токката
TTITLE15=Я тебя никогда не забуду
TTITLE16=Утро туманное
TTITLE17=Вальс
TTITLE18=Вальс Бостон
TTITLE19=Темная ночь
TTITLE20=Chi may
EXTD=
EXTT0=
EXTT1=
EXTT2=
EXTT3=
EXTT4=
EXTT5=
EXTT6=
EXTT7=
EXTT8=
EXTT9=
EXTT10=
EXTT11=
EXTT12=
EXTT13=
EXTT14=
EXTT15=
EXTT16=
EXTT17=
EXTT18=
EXTT19=
EXTT20=
PLAYORDER=
